<mxfile host="Electron" agent="Mozilla/5.0 (Windows NT 10.0; Win64; x64) AppleWebKit/537.36 (KHTML, like Gecko) draw.io/24.7.17 Chrome/128.0.6613.36 Electron/32.0.1 Safari/537.36" version="24.7.17">
  <diagram name="Page-1" id="IwRlBFoxgt0YKO_rDvif">
    <mxGraphModel dx="2074" dy="2296" grid="1" gridSize="10" guides="1" tooltips="1" connect="1" arrows="1" fold="1" page="1" pageScale="1" pageWidth="850" pageHeight="1100" math="0" shadow="0">
      <root>
        <mxCell id="0" />
        <mxCell id="1" parent="0" />
        <object placeholders="1" c4Name="Pitstop" c4Type="SystemScopeBoundary" c4Application="Microservice application" label="&lt;font style=&quot;font-size: 16px&quot;&gt;&lt;b&gt;&lt;div style=&quot;text-align: left&quot;&gt;%c4Name%&lt;/div&gt;&lt;/b&gt;&lt;/font&gt;&lt;div style=&quot;text-align: left&quot;&gt;[%c4Application%]&lt;/div&gt;" id="nHVEsoi8LOaqeYR5R_P5-1">
          <mxCell style="rounded=1;fontSize=11;whiteSpace=wrap;html=1;dashed=1;arcSize=20;fillColor=none;strokeColor=#666666;fontColor=#333333;labelBackgroundColor=none;align=left;verticalAlign=bottom;labelBorderColor=none;spacingTop=0;spacing=10;dashPattern=8 4;metaEdit=1;rotatable=0;perimeter=rectanglePerimeter;noLabel=0;labelPadding=0;allowArrows=0;connectable=0;expand=0;recursiveResize=0;editable=1;pointerEvents=0;absoluteArcSize=1;points=[[0.25,0,0],[0.5,0,0],[0.75,0,0],[1,0.25,0],[1,0.5,0],[1,0.75,0],[0.75,1,0],[0.5,1,0],[0.25,1,0],[0,0.75,0],[0,0.5,0],[0,0.25,0]];" parent="1" vertex="1">
            <mxGeometry x="120" width="1680" height="1600" as="geometry" />
          </mxCell>
        </object>
        <object placeholders="1" c4Name="Webapp" c4Type="Container" c4Technology="Razor web app" c4Description="Pitstop front-end" label="&lt;font style=&quot;font-size: 16px&quot;&gt;&lt;b&gt;%c4Name%&lt;/b&gt;&lt;/font&gt;&lt;div&gt;[%c4Type%:&amp;nbsp;%c4Technology%]&lt;/div&gt;&lt;br&gt;&lt;div&gt;&lt;font style=&quot;font-size: 11px&quot;&gt;&lt;font color=&quot;#E6E6E6&quot;&gt;%c4Description%&lt;/font&gt;&lt;/div&gt;" id="nHVEsoi8LOaqeYR5R_P5-3">
          <mxCell style="shape=mxgraph.c4.webBrowserContainer2;whiteSpace=wrap;html=1;boundedLbl=1;rounded=0;labelBackgroundColor=none;strokeColor=#118ACD;fillColor=#23A2D9;strokeColor=#118ACD;strokeColor2=#0E7DAD;fontSize=12;fontColor=#ffffff;align=center;metaEdit=1;points=[[0.5,0,0],[1,0.25,0],[1,0.5,0],[1,0.75,0],[0.5,1,0],[0,0.75,0],[0,0.5,0],[0,0.25,0]];resizable=0;" parent="1" vertex="1">
            <mxGeometry x="520" y="-80" width="240" height="160" as="geometry" />
          </mxCell>
        </object>
        <object placeholders="1" c4Name="TimeService" c4Type="Container" c4Technology="e.g. SpringBoot, ElasticSearch, etc." c4Description="Description of container role/responsibility." label="&lt;font style=&quot;font-size: 16px&quot;&gt;&lt;b&gt;%c4Name%&lt;/b&gt;&lt;/font&gt;&lt;div&gt;[%c4Type%: %c4Technology%]&lt;/div&gt;&lt;br&gt;&lt;div&gt;&lt;font style=&quot;font-size: 11px&quot;&gt;&lt;font color=&quot;#E6E6E6&quot;&gt;%c4Description%&lt;/font&gt;&lt;/div&gt;" id="nHVEsoi8LOaqeYR5R_P5-6">
          <mxCell style="rounded=1;whiteSpace=wrap;html=1;fontSize=11;labelBackgroundColor=none;fillColor=#23A2D9;fontColor=#ffffff;align=center;arcSize=10;strokeColor=#0E7DAD;metaEdit=1;resizable=0;points=[[0.25,0,0],[0.5,0,0],[0.75,0,0],[1,0.25,0],[1,0.5,0],[1,0.75,0],[0.75,1,0],[0.5,1,0],[0.25,1,0],[0,0.75,0],[0,0.5,0],[0,0.25,0]];" parent="1" vertex="1">
            <mxGeometry x="1280" y="1360" width="240" height="120" as="geometry" />
          </mxCell>
        </object>
        <object placeholders="1" c4Name="NotificationService" c4Type="Container" c4Technology="e.g. SpringBoot, ElasticSearch, etc." c4Description="Description of container role/responsibility." label="&lt;font style=&quot;font-size: 16px&quot;&gt;&lt;b&gt;%c4Name%&lt;/b&gt;&lt;/font&gt;&lt;div&gt;[%c4Type%: %c4Technology%]&lt;/div&gt;&lt;br&gt;&lt;div&gt;&lt;font style=&quot;font-size: 11px&quot;&gt;&lt;font color=&quot;#E6E6E6&quot;&gt;%c4Description%&lt;/font&gt;&lt;/div&gt;" id="nHVEsoi8LOaqeYR5R_P5-7">
          <mxCell style="rounded=1;whiteSpace=wrap;html=1;fontSize=11;labelBackgroundColor=none;fillColor=#23A2D9;fontColor=#ffffff;align=center;arcSize=10;strokeColor=#0E7DAD;metaEdit=1;resizable=0;points=[[0.25,0,0],[0.5,0,0],[0.75,0,0],[1,0.25,0],[1,0.5,0],[1,0.75,0],[0.75,1,0],[0.5,1,0],[0.25,1,0],[0,0.75,0],[0,0.5,0],[0,0.25,0]];" parent="1" vertex="1">
            <mxGeometry x="1560" y="1360" width="240" height="120" as="geometry" />
          </mxCell>
        </object>
        <object placeholders="1" c4Name="AuditLogService" c4Type="Container" c4Technology="e.g. SpringBoot, ElasticSearch, etc." c4Description="Description of container role/responsibility." label="&lt;font style=&quot;font-size: 16px&quot;&gt;&lt;b&gt;%c4Name%&lt;/b&gt;&lt;/font&gt;&lt;div&gt;[%c4Type%: %c4Technology%]&lt;/div&gt;&lt;br&gt;&lt;div&gt;&lt;font style=&quot;font-size: 11px&quot;&gt;&lt;font color=&quot;#E6E6E6&quot;&gt;%c4Description%&lt;/font&gt;&lt;/div&gt;" id="nHVEsoi8LOaqeYR5R_P5-8">
          <mxCell style="rounded=1;whiteSpace=wrap;html=1;fontSize=11;labelBackgroundColor=none;fillColor=#23A2D9;fontColor=#ffffff;align=center;arcSize=10;strokeColor=#0E7DAD;metaEdit=1;resizable=0;points=[[0.25,0,0],[0.5,0,0],[0.75,0,0],[1,0.25,0],[1,0.5,0],[1,0.75,0],[0.75,1,0],[0.5,1,0],[0.25,1,0],[0,0.75,0],[0,0.5,0],[0,0.25,0]];" parent="1" vertex="1">
            <mxGeometry x="1840" y="1360" width="240" height="120" as="geometry" />
          </mxCell>
        </object>
        <object placeholders="1" c4Name="MailServer" c4Type="Container" c4Technology="e.g. SpringBoot, ElasticSearch, etc." c4Description="Description of container role/responsibility." label="&lt;font style=&quot;font-size: 16px&quot;&gt;&lt;b&gt;%c4Name%&lt;/b&gt;&lt;/font&gt;&lt;div&gt;[%c4Type%: %c4Technology%]&lt;/div&gt;&lt;br&gt;&lt;div&gt;&lt;font style=&quot;font-size: 11px&quot;&gt;&lt;font color=&quot;#E6E6E6&quot;&gt;%c4Description%&lt;/font&gt;&lt;/div&gt;" id="nHVEsoi8LOaqeYR5R_P5-10">
          <mxCell style="rounded=1;whiteSpace=wrap;html=1;fontSize=11;labelBackgroundColor=none;fillColor=#23A2D9;fontColor=#ffffff;align=center;arcSize=10;strokeColor=#0E7DAD;metaEdit=1;resizable=0;points=[[0.25,0,0],[0.5,0,0],[0.75,0,0],[1,0.25,0],[1,0.5,0],[1,0.75,0],[0.75,1,0],[0.5,1,0],[0.25,1,0],[0,0.75,0],[0,0.5,0],[0,0.25,0]];" parent="1" vertex="1">
            <mxGeometry x="640" y="1360" width="240" height="120" as="geometry" />
          </mxCell>
        </object>
        <object placeholders="1" c4Name="VehicleManagement" c4Type="Container" c4Technology="e.g. SpringBoot, ElasticSearch, etc." c4Description="Description of container role/responsibility." label="&lt;font style=&quot;font-size: 16px&quot;&gt;&lt;b&gt;%c4Name%&lt;/b&gt;&lt;/font&gt;&lt;div&gt;[%c4Type%: %c4Technology%]&lt;/div&gt;&lt;br&gt;&lt;div&gt;&lt;font style=&quot;font-size: 11px&quot;&gt;&lt;font color=&quot;#E6E6E6&quot;&gt;%c4Description%&lt;/font&gt;&lt;/div&gt;" id="nHVEsoi8LOaqeYR5R_P5-12">
          <mxCell style="rounded=1;whiteSpace=wrap;html=1;fontSize=11;labelBackgroundColor=none;fillColor=#23A2D9;fontColor=#ffffff;align=center;arcSize=10;strokeColor=#0E7DAD;metaEdit=1;resizable=0;points=[[0.25,0,0],[0.5,0,0],[0.75,0,0],[1,0.25,0],[1,0.5,0],[1,0.75,0],[0.75,1,0],[0.5,1,0],[0.25,1,0],[0,0.75,0],[0,0.5,0],[0,0.25,0]];" parent="1" vertex="1">
            <mxGeometry x="880" y="280" width="240" height="120" as="geometry" />
          </mxCell>
        </object>
        <object placeholders="1" c4Name="CustomerManagement" c4Type="Container" c4Technology="e.g. SpringBoot, ElasticSearch, etc." c4Description="Description of container role/responsibility." label="&lt;font style=&quot;font-size: 16px&quot;&gt;&lt;b&gt;%c4Name%&lt;/b&gt;&lt;/font&gt;&lt;div&gt;[%c4Type%: %c4Technology%]&lt;/div&gt;&lt;br&gt;&lt;div&gt;&lt;font style=&quot;font-size: 11px&quot;&gt;&lt;font color=&quot;#E6E6E6&quot;&gt;%c4Description%&lt;/font&gt;&lt;/div&gt;" id="nHVEsoi8LOaqeYR5R_P5-13">
          <mxCell style="rounded=1;whiteSpace=wrap;html=1;fontSize=11;labelBackgroundColor=none;fillColor=#23A2D9;fontColor=#ffffff;align=center;arcSize=10;strokeColor=#0E7DAD;metaEdit=1;resizable=0;points=[[0.25,0,0],[0.5,0,0],[0.75,0,0],[1,0.25,0],[1,0.5,0],[1,0.75,0],[0.75,1,0],[0.5,1,0],[0.25,1,0],[0,0.75,0],[0,0.5,0],[0,0.25,0]];" parent="1" vertex="1">
            <mxGeometry x="880" y="440" width="240" height="120" as="geometry" />
          </mxCell>
        </object>
        <object placeholders="1" c4Name="WorkshopManagement" c4Type="Container" c4Technology="e.g. SpringBoot, ElasticSearch, etc." c4Description="Description of container role/responsibility." label="&lt;font style=&quot;font-size: 16px&quot;&gt;&lt;b&gt;%c4Name%&lt;/b&gt;&lt;/font&gt;&lt;div&gt;[%c4Type%: %c4Technology%]&lt;/div&gt;&lt;br&gt;&lt;div&gt;&lt;font style=&quot;font-size: 11px&quot;&gt;&lt;font color=&quot;#E6E6E6&quot;&gt;%c4Description%&lt;/font&gt;&lt;/div&gt;" id="nHVEsoi8LOaqeYR5R_P5-14">
          <mxCell style="rounded=1;whiteSpace=wrap;html=1;fontSize=11;labelBackgroundColor=none;fillColor=#23A2D9;fontColor=#ffffff;align=center;arcSize=10;strokeColor=#0E7DAD;metaEdit=1;resizable=0;points=[[0.25,0,0],[0.5,0,0],[0.75,0,0],[1,0.25,0],[1,0.5,0],[1,0.75,0],[0.75,1,0],[0.5,1,0],[0.25,1,0],[0,0.75,0],[0,0.5,0],[0,0.25,0]];" parent="1" vertex="1">
            <mxGeometry x="880" y="600" width="240" height="120" as="geometry" />
          </mxCell>
        </object>
        <object placeholders="1" c4Name="RentalCarManagement" c4Type="Container" c4Technology="e.g. SpringBoot, ElasticSearch, etc." c4Description="Description of container role/responsibility." label="&lt;font style=&quot;font-size: 16px&quot;&gt;&lt;b&gt;%c4Name%&lt;/b&gt;&lt;/font&gt;&lt;div&gt;[%c4Type%: %c4Technology%]&lt;/div&gt;&lt;br&gt;&lt;div&gt;&lt;font style=&quot;font-size: 11px&quot;&gt;&lt;font color=&quot;#E6E6E6&quot;&gt;%c4Description%&lt;/font&gt;&lt;/div&gt;" id="nHVEsoi8LOaqeYR5R_P5-15">
          <mxCell style="rounded=1;whiteSpace=wrap;html=1;fontSize=11;labelBackgroundColor=none;fillColor=#23A2D9;fontColor=#ffffff;align=center;arcSize=10;strokeColor=#0E7DAD;metaEdit=1;resizable=0;points=[[0.25,0,0],[0.5,0,0],[0.75,0,0],[1,0.25,0],[1,0.5,0],[1,0.75,0],[0.75,1,0],[0.5,1,0],[0.25,1,0],[0,0.75,0],[0,0.5,0],[0,0.25,0]];" parent="1" vertex="1">
            <mxGeometry x="880" y="760" width="240" height="120" as="geometry" />
          </mxCell>
        </object>
        <object placeholders="1" c4Name="RentalManagement" c4Type="Container" c4Technology="e.g. SpringBoot, ElasticSearch, etc." c4Description="Description of container role/responsibility." label="&lt;font style=&quot;font-size: 16px&quot;&gt;&lt;b&gt;%c4Name%&lt;/b&gt;&lt;/font&gt;&lt;div&gt;[%c4Type%: %c4Technology%]&lt;/div&gt;&lt;br&gt;&lt;div&gt;&lt;font style=&quot;font-size: 11px&quot;&gt;&lt;font color=&quot;#E6E6E6&quot;&gt;%c4Description%&lt;/font&gt;&lt;/div&gt;" id="nHVEsoi8LOaqeYR5R_P5-17">
          <mxCell style="rounded=1;whiteSpace=wrap;html=1;fontSize=11;labelBackgroundColor=none;fillColor=#23A2D9;fontColor=#ffffff;align=center;arcSize=10;strokeColor=#0E7DAD;metaEdit=1;resizable=0;points=[[0.25,0,0],[0.5,0,0],[0.75,0,0],[1,0.25,0],[1,0.5,0],[1,0.75,0],[0.75,1,0],[0.5,1,0],[0.25,1,0],[0,0.75,0],[0,0.5,0],[0,0.25,0]];" parent="1" vertex="1">
            <mxGeometry x="880" y="920" width="240" height="120" as="geometry" />
          </mxCell>
        </object>
        <object placeholders="1" c4Name="RabbitMQ" c4Type="Container" c4Technology="e.g. Apache Kafka, etc." c4Description="Description of message bus type container role/responsibility." label="&lt;font style=&quot;font-size: 16px&quot;&gt;&lt;b&gt;%c4Name%&lt;/b&gt;&lt;/font&gt;&lt;div&gt;[%c4Type%:&amp;nbsp;%c4Technology%]&lt;/div&gt;&lt;br&gt;&lt;div&gt;&lt;font style=&quot;font-size: 11px&quot;&gt;&lt;font color=&quot;#E6E6E6&quot;&gt;%c4Description%&lt;/font&gt;&lt;/div&gt;" id="nHVEsoi8LOaqeYR5R_P5-22">
          <mxCell style="shape=cylinder3;size=15;direction=south;whiteSpace=wrap;html=1;boundedLbl=1;rounded=0;labelBackgroundColor=none;fillColor=#23A2D9;fontSize=12;fontColor=#ffffff;align=center;strokeColor=#0E7DAD;metaEdit=1;points=[[0.5,0,0],[1,0.25,0],[1,0.5,0],[1,0.75,0],[0.5,1,0],[0,0.75,0],[0,0.5,0],[0,0.25,0]];resizable=0;" parent="1" vertex="1">
            <mxGeometry x="1160" y="1080" width="240" height="120" as="geometry" />
          </mxCell>
        </object>
        <mxCell id="nHVEsoi8LOaqeYR5R_P5-31" style="edgeStyle=orthogonalEdgeStyle;rounded=0;orthogonalLoop=1;jettySize=auto;html=1;entryX=1;entryY=0.25;entryDx=0;entryDy=0;entryPerimeter=0;fillColor=#008a00;strokeColor=#005700;dashed=1;" parent="1" source="nHVEsoi8LOaqeYR5R_P5-22" target="nHVEsoi8LOaqeYR5R_P5-17" edge="1">
          <mxGeometry relative="1" as="geometry">
            <Array as="points">
              <mxPoint x="1320" y="950" />
            </Array>
          </mxGeometry>
        </mxCell>
        <mxCell id="nHVEsoi8LOaqeYR5R_P5-32" style="edgeStyle=orthogonalEdgeStyle;rounded=0;orthogonalLoop=1;jettySize=auto;html=1;entryX=1;entryY=0.25;entryDx=0;entryDy=0;entryPerimeter=0;fillColor=#008a00;strokeColor=#005700;dashed=1;" parent="1" source="nHVEsoi8LOaqeYR5R_P5-22" target="nHVEsoi8LOaqeYR5R_P5-15" edge="1">
          <mxGeometry relative="1" as="geometry">
            <Array as="points">
              <mxPoint x="1320" y="790" />
            </Array>
          </mxGeometry>
        </mxCell>
        <mxCell id="nHVEsoi8LOaqeYR5R_P5-33" style="edgeStyle=orthogonalEdgeStyle;rounded=0;orthogonalLoop=1;jettySize=auto;html=1;entryX=1;entryY=0.25;entryDx=0;entryDy=0;entryPerimeter=0;fillColor=#008a00;strokeColor=#005700;dashed=1;" parent="1" source="nHVEsoi8LOaqeYR5R_P5-22" target="nHVEsoi8LOaqeYR5R_P5-13" edge="1">
          <mxGeometry relative="1" as="geometry">
            <Array as="points">
              <mxPoint x="1320" y="470" />
            </Array>
          </mxGeometry>
        </mxCell>
        <mxCell id="nHVEsoi8LOaqeYR5R_P5-34" style="edgeStyle=orthogonalEdgeStyle;rounded=0;orthogonalLoop=1;jettySize=auto;html=1;entryX=1;entryY=0.25;entryDx=0;entryDy=0;entryPerimeter=0;fillColor=#008a00;strokeColor=#005700;dashed=1;" parent="1" source="nHVEsoi8LOaqeYR5R_P5-22" target="nHVEsoi8LOaqeYR5R_P5-14" edge="1">
          <mxGeometry relative="1" as="geometry">
            <Array as="points">
              <mxPoint x="1320" y="630" />
            </Array>
          </mxGeometry>
        </mxCell>
        <mxCell id="nHVEsoi8LOaqeYR5R_P5-35" style="edgeStyle=orthogonalEdgeStyle;rounded=0;orthogonalLoop=1;jettySize=auto;html=1;entryX=1;entryY=0.25;entryDx=0;entryDy=0;entryPerimeter=0;fillColor=#008a00;strokeColor=#005700;dashed=1;" parent="1" source="nHVEsoi8LOaqeYR5R_P5-22" target="nHVEsoi8LOaqeYR5R_P5-12" edge="1">
          <mxGeometry relative="1" as="geometry">
            <Array as="points">
              <mxPoint x="1320" y="310" />
            </Array>
          </mxGeometry>
        </mxCell>
        <mxCell id="nHVEsoi8LOaqeYR5R_P5-56" value="Retrieves information&lt;div&gt;about events&lt;/div&gt;" style="edgeLabel;html=1;align=center;verticalAlign=middle;resizable=0;points=[];" parent="nHVEsoi8LOaqeYR5R_P5-35" vertex="1" connectable="0">
          <mxGeometry x="-0.9122" y="-1" relative="1" as="geometry">
            <mxPoint as="offset" />
          </mxGeometry>
        </mxCell>
        <mxCell id="nHVEsoi8LOaqeYR5R_P5-36" style="edgeStyle=orthogonalEdgeStyle;rounded=0;orthogonalLoop=1;jettySize=auto;html=1;entryX=0;entryY=0.75;entryDx=0;entryDy=0;entryPerimeter=0;fillColor=#0050ef;strokeColor=#001DBC;dashed=1;" parent="1" source="nHVEsoi8LOaqeYR5R_P5-17" target="nHVEsoi8LOaqeYR5R_P5-22" edge="1">
          <mxGeometry relative="1" as="geometry">
            <Array as="points">
              <mxPoint x="1220" y="1010" />
            </Array>
          </mxGeometry>
        </mxCell>
        <mxCell id="nHVEsoi8LOaqeYR5R_P5-37" style="edgeStyle=orthogonalEdgeStyle;rounded=0;orthogonalLoop=1;jettySize=auto;html=1;entryX=0;entryY=0.75;entryDx=0;entryDy=0;entryPerimeter=0;fillColor=#0050ef;strokeColor=#001DBC;dashed=1;" parent="1" source="nHVEsoi8LOaqeYR5R_P5-15" target="nHVEsoi8LOaqeYR5R_P5-22" edge="1">
          <mxGeometry relative="1" as="geometry">
            <Array as="points">
              <mxPoint x="1220" y="850" />
            </Array>
          </mxGeometry>
        </mxCell>
        <mxCell id="nHVEsoi8LOaqeYR5R_P5-38" style="edgeStyle=orthogonalEdgeStyle;rounded=0;orthogonalLoop=1;jettySize=auto;html=1;entryX=0;entryY=0.75;entryDx=0;entryDy=0;entryPerimeter=0;fillColor=#0050ef;strokeColor=#001DBC;dashed=1;" parent="1" source="nHVEsoi8LOaqeYR5R_P5-14" target="nHVEsoi8LOaqeYR5R_P5-22" edge="1">
          <mxGeometry relative="1" as="geometry">
            <Array as="points">
              <mxPoint x="1220" y="690" />
            </Array>
          </mxGeometry>
        </mxCell>
        <mxCell id="nHVEsoi8LOaqeYR5R_P5-39" style="edgeStyle=orthogonalEdgeStyle;rounded=0;orthogonalLoop=1;jettySize=auto;html=1;entryX=0;entryY=0.75;entryDx=0;entryDy=0;entryPerimeter=0;fillColor=#0050ef;strokeColor=#001DBC;dashed=1;" parent="1" source="nHVEsoi8LOaqeYR5R_P5-13" target="nHVEsoi8LOaqeYR5R_P5-22" edge="1">
          <mxGeometry relative="1" as="geometry">
            <Array as="points">
              <mxPoint x="1220" y="530" />
            </Array>
          </mxGeometry>
        </mxCell>
        <mxCell id="nHVEsoi8LOaqeYR5R_P5-40" style="edgeStyle=orthogonalEdgeStyle;rounded=0;orthogonalLoop=1;jettySize=auto;html=1;entryX=0;entryY=0.75;entryDx=0;entryDy=0;entryPerimeter=0;fillColor=#0050ef;strokeColor=#001DBC;dashed=1;" parent="1" source="nHVEsoi8LOaqeYR5R_P5-12" target="nHVEsoi8LOaqeYR5R_P5-22" edge="1">
          <mxGeometry relative="1" as="geometry">
            <Array as="points">
              <mxPoint x="1220" y="370" />
            </Array>
          </mxGeometry>
        </mxCell>
        <mxCell id="nHVEsoi8LOaqeYR5R_P5-55" value="Queues events" style="edgeLabel;html=1;align=center;verticalAlign=middle;resizable=0;points=[];" parent="nHVEsoi8LOaqeYR5R_P5-40" vertex="1" connectable="0">
          <mxGeometry x="0.8969" relative="1" as="geometry">
            <mxPoint as="offset" />
          </mxGeometry>
        </mxCell>
        <object placeholders="1" c4Name="RentalManagement" c4Type="Container" c4Technology="SQL Server 2019" c4Description="Stores data of the rental reservations" label="&lt;font style=&quot;font-size: 16px&quot;&gt;&lt;b&gt;%c4Name%&lt;/b&gt;&lt;/font&gt;&lt;div&gt;[%c4Type%:&amp;nbsp;%c4Technology%]&lt;/div&gt;&lt;br&gt;&lt;div&gt;&lt;font style=&quot;font-size: 11px&quot;&gt;&lt;font color=&quot;#E6E6E6&quot;&gt;%c4Description%&lt;/font&gt;&lt;/div&gt;" id="nHVEsoi8LOaqeYR5R_P5-41">
          <mxCell style="shape=cylinder3;size=15;whiteSpace=wrap;html=1;boundedLbl=1;rounded=0;labelBackgroundColor=none;fillColor=#23A2D9;fontSize=12;fontColor=#ffffff;align=center;strokeColor=#0E7DAD;metaEdit=1;points=[[0.5,0,0],[1,0.25,0],[1,0.5,0],[1,0.75,0],[0.5,1,0],[0,0.75,0],[0,0.5,0],[0,0.25,0]];resizable=0;" parent="1" vertex="1">
            <mxGeometry x="1440" y="920" width="240" height="120" as="geometry" />
          </mxCell>
        </object>
        <object placeholders="1" c4Name="RentalCarManagement" c4Type="Container" c4Technology="SQL Server 2019" c4Description="Stores data of the rental cars" label="&lt;font style=&quot;font-size: 16px&quot;&gt;&lt;b&gt;%c4Name%&lt;/b&gt;&lt;/font&gt;&lt;div&gt;[%c4Type%:&amp;nbsp;%c4Technology%]&lt;/div&gt;&lt;br&gt;&lt;div&gt;&lt;font style=&quot;font-size: 11px&quot;&gt;&lt;font color=&quot;#E6E6E6&quot;&gt;%c4Description%&lt;/font&gt;&lt;/div&gt;" id="nHVEsoi8LOaqeYR5R_P5-42">
          <mxCell style="shape=cylinder3;size=15;whiteSpace=wrap;html=1;boundedLbl=1;rounded=0;labelBackgroundColor=none;fillColor=#23A2D9;fontSize=12;fontColor=#ffffff;align=center;strokeColor=#0E7DAD;metaEdit=1;points=[[0.5,0,0],[1,0.25,0],[1,0.5,0],[1,0.75,0],[0.5,1,0],[0,0.75,0],[0,0.5,0],[0,0.25,0]];resizable=0;" parent="1" vertex="1">
            <mxGeometry x="1440" y="760" width="240" height="120" as="geometry" />
          </mxCell>
        </object>
        <object placeholders="1" c4Name="WorkshopManagement" c4Type="Container" c4Technology="SQL Server 2019" c4Description="Stores data of the reperations" label="&lt;font style=&quot;font-size: 16px&quot;&gt;&lt;b&gt;%c4Name%&lt;/b&gt;&lt;/font&gt;&lt;div&gt;[%c4Type%:&amp;nbsp;%c4Technology%]&lt;/div&gt;&lt;br&gt;&lt;div&gt;&lt;font style=&quot;font-size: 11px&quot;&gt;&lt;font color=&quot;#E6E6E6&quot;&gt;%c4Description%&lt;/font&gt;&lt;/div&gt;" id="nHVEsoi8LOaqeYR5R_P5-43">
          <mxCell style="shape=cylinder3;size=15;whiteSpace=wrap;html=1;boundedLbl=1;rounded=0;labelBackgroundColor=none;fillColor=#23A2D9;fontSize=12;fontColor=#ffffff;align=center;strokeColor=#0E7DAD;metaEdit=1;points=[[0.5,0,0],[1,0.25,0],[1,0.5,0],[1,0.75,0],[0.5,1,0],[0,0.75,0],[0,0.5,0],[0,0.25,0]];resizable=0;" parent="1" vertex="1">
            <mxGeometry x="1440" y="600" width="240" height="120" as="geometry" />
          </mxCell>
        </object>
        <object placeholders="1" c4Name="CustomerManagement " c4Type="Container" c4Technology="SQL Server 2019" c4Description="Stores data of customers" label="&lt;font style=&quot;font-size: 16px&quot;&gt;&lt;b&gt;%c4Name%&lt;/b&gt;&lt;/font&gt;&lt;div&gt;[%c4Type%:&amp;nbsp;%c4Technology%]&lt;/div&gt;&lt;br&gt;&lt;div&gt;&lt;font style=&quot;font-size: 11px&quot;&gt;&lt;font color=&quot;#E6E6E6&quot;&gt;%c4Description%&lt;/font&gt;&lt;/div&gt;" id="nHVEsoi8LOaqeYR5R_P5-44">
          <mxCell style="shape=cylinder3;size=15;whiteSpace=wrap;html=1;boundedLbl=1;rounded=0;labelBackgroundColor=none;fillColor=#23A2D9;fontSize=12;fontColor=#ffffff;align=center;strokeColor=#0E7DAD;metaEdit=1;points=[[0.5,0,0],[1,0.25,0],[1,0.5,0],[1,0.75,0],[0.5,1,0],[0,0.75,0],[0,0.5,0],[0,0.25,0]];resizable=0;" parent="1" vertex="1">
            <mxGeometry x="1440" y="440" width="240" height="120" as="geometry" />
          </mxCell>
        </object>
        <object placeholders="1" c4Name="VehicleManagement" c4Type="Container" c4Technology="SQL Server 2019" c4Description="Stores data of the vehicles" label="&lt;font style=&quot;font-size: 16px&quot;&gt;&lt;b&gt;%c4Name%&lt;/b&gt;&lt;/font&gt;&lt;div&gt;[%c4Type%:&amp;nbsp;%c4Technology%]&lt;/div&gt;&lt;br&gt;&lt;div&gt;&lt;font style=&quot;font-size: 11px&quot;&gt;&lt;font color=&quot;#E6E6E6&quot;&gt;%c4Description%&lt;/font&gt;&lt;/div&gt;" id="nHVEsoi8LOaqeYR5R_P5-45">
          <mxCell style="shape=cylinder3;size=15;whiteSpace=wrap;html=1;boundedLbl=1;rounded=0;labelBackgroundColor=none;fillColor=#23A2D9;fontSize=12;fontColor=#ffffff;align=center;strokeColor=#0E7DAD;metaEdit=1;points=[[0.5,0,0],[1,0.25,0],[1,0.5,0],[1,0.75,0],[0.5,1,0],[0,0.75,0],[0,0.5,0],[0,0.25,0]];resizable=0;" parent="1" vertex="1">
            <mxGeometry x="1440" y="280" width="240" height="120" as="geometry" />
          </mxCell>
        </object>
        <mxCell id="nHVEsoi8LOaqeYR5R_P5-46" style="edgeStyle=orthogonalEdgeStyle;rounded=0;orthogonalLoop=1;jettySize=auto;html=1;entryX=0;entryY=0.5;entryDx=0;entryDy=0;entryPerimeter=0;startArrow=none;startFill=0;dashed=1;" parent="1" source="nHVEsoi8LOaqeYR5R_P5-17" target="nHVEsoi8LOaqeYR5R_P5-41" edge="1">
          <mxGeometry relative="1" as="geometry" />
        </mxCell>
        <mxCell id="nHVEsoi8LOaqeYR5R_P5-57" value="Reads/writes data" style="edgeLabel;html=1;align=center;verticalAlign=middle;resizable=0;points=[];" parent="nHVEsoi8LOaqeYR5R_P5-46" vertex="1" connectable="0">
          <mxGeometry x="-0.0906" y="3" relative="1" as="geometry">
            <mxPoint y="-7" as="offset" />
          </mxGeometry>
        </mxCell>
        <mxCell id="nHVEsoi8LOaqeYR5R_P5-58" value="[SSL]" style="edgeLabel;html=1;align=center;verticalAlign=middle;resizable=0;points=[];" parent="nHVEsoi8LOaqeYR5R_P5-46" vertex="1" connectable="0">
          <mxGeometry x="-0.1261" relative="1" as="geometry">
            <mxPoint x="10" y="10" as="offset" />
          </mxGeometry>
        </mxCell>
        <mxCell id="nHVEsoi8LOaqeYR5R_P5-47" style="edgeStyle=orthogonalEdgeStyle;rounded=0;orthogonalLoop=1;jettySize=auto;html=1;entryX=0;entryY=0.5;entryDx=0;entryDy=0;entryPerimeter=0;startArrow=none;startFill=0;dashed=1;" parent="1" source="nHVEsoi8LOaqeYR5R_P5-15" target="nHVEsoi8LOaqeYR5R_P5-42" edge="1">
          <mxGeometry relative="1" as="geometry" />
        </mxCell>
        <mxCell id="nHVEsoi8LOaqeYR5R_P5-59" value="Reads/writes data" style="edgeLabel;html=1;align=center;verticalAlign=middle;resizable=0;points=[];" parent="nHVEsoi8LOaqeYR5R_P5-47" vertex="1" connectable="0">
          <mxGeometry x="-0.0851" relative="1" as="geometry">
            <mxPoint x="3" y="-10" as="offset" />
          </mxGeometry>
        </mxCell>
        <mxCell id="nHVEsoi8LOaqeYR5R_P5-60" value="[SSL]" style="edgeLabel;html=1;align=center;verticalAlign=middle;resizable=0;points=[];" parent="nHVEsoi8LOaqeYR5R_P5-47" vertex="1" connectable="0">
          <mxGeometry x="-0.0442" y="1" relative="1" as="geometry">
            <mxPoint x="2" y="11" as="offset" />
          </mxGeometry>
        </mxCell>
        <mxCell id="nHVEsoi8LOaqeYR5R_P5-48" style="edgeStyle=orthogonalEdgeStyle;rounded=0;orthogonalLoop=1;jettySize=auto;html=1;entryX=0;entryY=0.5;entryDx=0;entryDy=0;entryPerimeter=0;startArrow=none;startFill=0;dashed=1;" parent="1" source="nHVEsoi8LOaqeYR5R_P5-14" target="nHVEsoi8LOaqeYR5R_P5-43" edge="1">
          <mxGeometry relative="1" as="geometry" />
        </mxCell>
        <mxCell id="nHVEsoi8LOaqeYR5R_P5-61" value="Reads/writes data" style="edgeLabel;html=1;align=center;verticalAlign=middle;resizable=0;points=[];" parent="nHVEsoi8LOaqeYR5R_P5-48" vertex="1" connectable="0">
          <mxGeometry x="-0.0331" y="-1" relative="1" as="geometry">
            <mxPoint y="-11" as="offset" />
          </mxGeometry>
        </mxCell>
        <mxCell id="nHVEsoi8LOaqeYR5R_P5-63" value="[SSL]" style="edgeLabel;html=1;align=center;verticalAlign=middle;resizable=0;points=[];" parent="nHVEsoi8LOaqeYR5R_P5-48" vertex="1" connectable="0">
          <mxGeometry x="-0.0368" y="-2" relative="1" as="geometry">
            <mxPoint x="1" y="8" as="offset" />
          </mxGeometry>
        </mxCell>
        <mxCell id="nHVEsoi8LOaqeYR5R_P5-50" style="edgeStyle=orthogonalEdgeStyle;rounded=0;orthogonalLoop=1;jettySize=auto;html=1;entryX=0;entryY=0.5;entryDx=0;entryDy=0;entryPerimeter=0;dashed=1;startArrow=none;startFill=0;" parent="1" source="nHVEsoi8LOaqeYR5R_P5-12" target="nHVEsoi8LOaqeYR5R_P5-45" edge="1">
          <mxGeometry relative="1" as="geometry" />
        </mxCell>
        <mxCell id="nHVEsoi8LOaqeYR5R_P5-67" value="Reads/writes data" style="edgeLabel;html=1;align=center;verticalAlign=middle;resizable=0;points=[];" parent="nHVEsoi8LOaqeYR5R_P5-50" vertex="1" connectable="0">
          <mxGeometry x="-0.1507" y="1" relative="1" as="geometry">
            <mxPoint x="14" y="-9" as="offset" />
          </mxGeometry>
        </mxCell>
        <mxCell id="nHVEsoi8LOaqeYR5R_P5-68" value="[SSL]" style="edgeLabel;html=1;align=center;verticalAlign=middle;resizable=0;points=[];" parent="nHVEsoi8LOaqeYR5R_P5-50" vertex="1" connectable="0">
          <mxGeometry x="-0.0809" relative="1" as="geometry">
            <mxPoint y="10" as="offset" />
          </mxGeometry>
        </mxCell>
        <mxCell id="nHVEsoi8LOaqeYR5R_P5-53" style="edgeStyle=orthogonalEdgeStyle;rounded=0;orthogonalLoop=1;jettySize=auto;html=1;entryX=0;entryY=0.5;entryDx=0;entryDy=0;entryPerimeter=0;startArrow=none;startFill=0;dashed=1;" parent="1" source="nHVEsoi8LOaqeYR5R_P5-13" target="nHVEsoi8LOaqeYR5R_P5-44" edge="1">
          <mxGeometry relative="1" as="geometry" />
        </mxCell>
        <mxCell id="nHVEsoi8LOaqeYR5R_P5-65" value="Reads/writes data" style="edgeLabel;html=1;align=center;verticalAlign=middle;resizable=0;points=[];" parent="nHVEsoi8LOaqeYR5R_P5-53" vertex="1" connectable="0">
          <mxGeometry x="-0.0625" y="3" relative="1" as="geometry">
            <mxPoint x="5" y="-7" as="offset" />
          </mxGeometry>
        </mxCell>
        <mxCell id="nHVEsoi8LOaqeYR5R_P5-66" value="[SSL]" style="edgeLabel;html=1;align=center;verticalAlign=middle;resizable=0;points=[];" parent="nHVEsoi8LOaqeYR5R_P5-53" vertex="1" connectable="0">
          <mxGeometry x="-0.0772" y="-1" relative="1" as="geometry">
            <mxPoint y="9" as="offset" />
          </mxGeometry>
        </mxCell>
        <object placeholders="1" c4Name="Container diagram" c4Type="ContainerDiagramTitle" c4Description="Goed om te zien is dat de applicatie is opgedeeld in microservices. Elke microservice kent hierbij zijn eigen verantwoordelijkheid. Zie de ADR&#39;s voor meer duidelijkheid over de gemaakte architectuurkeuzes." label="&lt;font style=&quot;font-size: 16px&quot;&gt;&lt;b&gt;&lt;div style=&quot;text-align: left&quot;&gt;%c4Name%&lt;/div&gt;&lt;/b&gt;&lt;/font&gt;&lt;div style=&quot;text-align: left&quot;&gt;%c4Description%&lt;/div&gt;" id="nHVEsoi8LOaqeYR5R_P5-70">
          <mxCell style="text;html=1;strokeColor=none;fillColor=none;align=left;verticalAlign=top;whiteSpace=wrap;rounded=0;metaEdit=1;allowArrows=0;resizable=1;rotatable=0;connectable=0;recursiveResize=0;expand=0;pointerEvents=0;points=[[0.25,0,0],[0.5,0,0],[0.75,0,0],[1,0.25,0],[1,0.5,0],[1,0.75,0],[0.75,1,0],[0.5,1,0],[0.25,1,0],[0,0.75,0],[0,0.5,0],[0,0.25,0]];" parent="1" vertex="1">
            <mxGeometry x="120" y="-100" width="260" height="80" as="geometry" />
          </mxCell>
        </object>
        <mxCell id="nHVEsoi8LOaqeYR5R_P5-71" style="edgeStyle=orthogonalEdgeStyle;rounded=0;orthogonalLoop=1;jettySize=auto;html=1;entryX=0;entryY=0.5;entryDx=0;entryDy=0;entryPerimeter=0;dashed=1;" parent="1" source="nHVEsoi8LOaqeYR5R_P5-3" target="nHVEsoi8LOaqeYR5R_P5-12" edge="1">
          <mxGeometry relative="1" as="geometry">
            <Array as="points">
              <mxPoint x="640" y="340" />
            </Array>
          </mxGeometry>
        </mxCell>
        <mxCell id="nHVEsoi8LOaqeYR5R_P5-78" value="GET, PUT, POST, PATCH" style="edgeLabel;html=1;align=center;verticalAlign=middle;resizable=0;points=[];" parent="nHVEsoi8LOaqeYR5R_P5-71" vertex="1" connectable="0">
          <mxGeometry x="0.2505" y="2" relative="1" as="geometry">
            <mxPoint x="48" y="-8" as="offset" />
          </mxGeometry>
        </mxCell>
        <mxCell id="nHVEsoi8LOaqeYR5R_P5-79" value="[HTTP]" style="edgeLabel;html=1;align=center;verticalAlign=middle;resizable=0;points=[];" parent="nHVEsoi8LOaqeYR5R_P5-71" vertex="1" connectable="0">
          <mxGeometry x="0.4574" relative="1" as="geometry">
            <mxPoint x="-4" y="10" as="offset" />
          </mxGeometry>
        </mxCell>
        <mxCell id="nHVEsoi8LOaqeYR5R_P5-72" style="edgeStyle=orthogonalEdgeStyle;rounded=0;orthogonalLoop=1;jettySize=auto;html=1;entryX=0;entryY=0.5;entryDx=0;entryDy=0;entryPerimeter=0;strokeColor=none;dashed=1;" parent="1" source="nHVEsoi8LOaqeYR5R_P5-3" target="nHVEsoi8LOaqeYR5R_P5-13" edge="1">
          <mxGeometry relative="1" as="geometry">
            <Array as="points">
              <mxPoint x="640" y="500" />
            </Array>
          </mxGeometry>
        </mxCell>
        <mxCell id="nHVEsoi8LOaqeYR5R_P5-73" style="edgeStyle=orthogonalEdgeStyle;rounded=0;orthogonalLoop=1;jettySize=auto;html=1;entryX=0;entryY=0.5;entryDx=0;entryDy=0;entryPerimeter=0;dashed=1;" parent="1" source="nHVEsoi8LOaqeYR5R_P5-3" target="nHVEsoi8LOaqeYR5R_P5-13" edge="1">
          <mxGeometry relative="1" as="geometry">
            <Array as="points">
              <mxPoint x="640" y="500" />
            </Array>
          </mxGeometry>
        </mxCell>
        <mxCell id="nHVEsoi8LOaqeYR5R_P5-80" value="GET, PUT, POST, PATCH" style="edgeLabel;html=1;align=center;verticalAlign=middle;resizable=0;points=[];" parent="nHVEsoi8LOaqeYR5R_P5-73" vertex="1" connectable="0">
          <mxGeometry x="0.5645" y="-1" relative="1" as="geometry">
            <mxPoint x="-3" y="-11" as="offset" />
          </mxGeometry>
        </mxCell>
        <mxCell id="nHVEsoi8LOaqeYR5R_P5-81" value="[HTTP]" style="edgeLabel;html=1;align=center;verticalAlign=middle;resizable=0;points=[];" parent="nHVEsoi8LOaqeYR5R_P5-73" vertex="1" connectable="0">
          <mxGeometry x="0.5645" y="-2" relative="1" as="geometry">
            <mxPoint x="-3" y="8" as="offset" />
          </mxGeometry>
        </mxCell>
        <mxCell id="nHVEsoi8LOaqeYR5R_P5-74" style="edgeStyle=orthogonalEdgeStyle;rounded=0;orthogonalLoop=1;jettySize=auto;html=1;entryX=0;entryY=0.5;entryDx=0;entryDy=0;entryPerimeter=0;dashed=1;" parent="1" source="nHVEsoi8LOaqeYR5R_P5-3" target="nHVEsoi8LOaqeYR5R_P5-14" edge="1">
          <mxGeometry relative="1" as="geometry">
            <Array as="points">
              <mxPoint x="640" y="660" />
            </Array>
          </mxGeometry>
        </mxCell>
        <mxCell id="nHVEsoi8LOaqeYR5R_P5-83" value="GET, PUT, POST, PATCH" style="edgeLabel;html=1;align=center;verticalAlign=middle;resizable=0;points=[];" parent="nHVEsoi8LOaqeYR5R_P5-74" vertex="1" connectable="0">
          <mxGeometry x="0.5912" y="-1" relative="1" as="geometry">
            <mxPoint x="23" y="-11" as="offset" />
          </mxGeometry>
        </mxCell>
        <mxCell id="nHVEsoi8LOaqeYR5R_P5-84" value="[HTTP]" style="edgeLabel;html=1;align=center;verticalAlign=middle;resizable=0;points=[];" parent="nHVEsoi8LOaqeYR5R_P5-74" vertex="1" connectable="0">
          <mxGeometry x="0.6936" y="-2" relative="1" as="geometry">
            <mxPoint x="-13" y="8" as="offset" />
          </mxGeometry>
        </mxCell>
        <mxCell id="nHVEsoi8LOaqeYR5R_P5-75" style="edgeStyle=orthogonalEdgeStyle;rounded=0;orthogonalLoop=1;jettySize=auto;html=1;entryX=0;entryY=0.5;entryDx=0;entryDy=0;entryPerimeter=0;dashed=1;" parent="1" source="nHVEsoi8LOaqeYR5R_P5-3" target="nHVEsoi8LOaqeYR5R_P5-15" edge="1">
          <mxGeometry relative="1" as="geometry">
            <Array as="points">
              <mxPoint x="640" y="820" />
            </Array>
          </mxGeometry>
        </mxCell>
        <mxCell id="nHVEsoi8LOaqeYR5R_P5-85" value="GET, PUT, POST, PATCH" style="edgeLabel;html=1;align=center;verticalAlign=middle;resizable=0;points=[];" parent="nHVEsoi8LOaqeYR5R_P5-75" vertex="1" connectable="0">
          <mxGeometry x="0.7137" y="2" relative="1" as="geometry">
            <mxPoint x="3" y="-8" as="offset" />
          </mxGeometry>
        </mxCell>
        <mxCell id="nHVEsoi8LOaqeYR5R_P5-86" value="[HTTP]" style="edgeLabel;html=1;align=center;verticalAlign=middle;resizable=0;points=[];" parent="nHVEsoi8LOaqeYR5R_P5-75" vertex="1" connectable="0">
          <mxGeometry x="0.7394" y="-1" relative="1" as="geometry">
            <mxPoint x="-8" y="9" as="offset" />
          </mxGeometry>
        </mxCell>
        <mxCell id="nHVEsoi8LOaqeYR5R_P5-76" style="edgeStyle=orthogonalEdgeStyle;rounded=0;orthogonalLoop=1;jettySize=auto;html=1;entryX=0;entryY=0.5;entryDx=0;entryDy=0;entryPerimeter=0;dashed=1;" parent="1" source="nHVEsoi8LOaqeYR5R_P5-3" target="nHVEsoi8LOaqeYR5R_P5-17" edge="1">
          <mxGeometry relative="1" as="geometry">
            <Array as="points">
              <mxPoint x="640" y="980" />
            </Array>
          </mxGeometry>
        </mxCell>
        <mxCell id="nHVEsoi8LOaqeYR5R_P5-87" value="GET, PUT, POST, PATCH" style="edgeLabel;html=1;align=center;verticalAlign=middle;resizable=0;points=[];" parent="nHVEsoi8LOaqeYR5R_P5-76" vertex="1" connectable="0">
          <mxGeometry x="0.7329" y="2" relative="1" as="geometry">
            <mxPoint x="16" y="-8" as="offset" />
          </mxGeometry>
        </mxCell>
        <mxCell id="nHVEsoi8LOaqeYR5R_P5-88" value="[HTTP]" style="edgeLabel;html=1;align=center;verticalAlign=middle;resizable=0;points=[];" parent="nHVEsoi8LOaqeYR5R_P5-76" vertex="1" connectable="0">
          <mxGeometry x="0.8005" y="2" relative="1" as="geometry">
            <mxPoint x="-19" y="12" as="offset" />
          </mxGeometry>
        </mxCell>
        <object placeholders="1" c4Name="VehicleManagement" c4Type="Container" c4Technology="e.g. SpringBoot, ElasticSearch, etc." c4Description="Description of container role/responsibility." label="&lt;font style=&quot;font-size: 16px&quot;&gt;&lt;b&gt;%c4Name%&lt;/b&gt;&lt;/font&gt;&lt;div&gt;[%c4Type%: %c4Technology%]&lt;/div&gt;&lt;br&gt;&lt;div&gt;&lt;font style=&quot;font-size: 11px&quot;&gt;&lt;font color=&quot;#E6E6E6&quot;&gt;%c4Description%&lt;/font&gt;&lt;/div&gt;" id="nHVEsoi8LOaqeYR5R_P5-90">
          <mxCell style="rounded=1;whiteSpace=wrap;html=1;fontSize=11;labelBackgroundColor=none;fillColor=#23A2D9;fontColor=#ffffff;align=center;arcSize=10;strokeColor=#0E7DAD;metaEdit=1;resizable=0;points=[[0.25,0,0],[0.5,0,0],[0.75,0,0],[1,0.25,0],[1,0.5,0],[1,0.75,0],[0.75,1,0],[0.5,1,0],[0.25,1,0],[0,0.75,0],[0,0.5,0],[0,0.25,0]];" parent="1" vertex="1">
            <mxGeometry x="880" y="120" width="240" height="120" as="geometry" />
          </mxCell>
        </object>
        <object placeholders="1" c4Name="VehicleManagement" c4Type="Container" c4Technology="SQL Server 2019" c4Description="Stores data of the vehicles" label="&lt;font style=&quot;font-size: 16px&quot;&gt;&lt;b&gt;%c4Name%&lt;/b&gt;&lt;/font&gt;&lt;div&gt;[%c4Type%:&amp;nbsp;%c4Technology%]&lt;/div&gt;&lt;br&gt;&lt;div&gt;&lt;font style=&quot;font-size: 11px&quot;&gt;&lt;font color=&quot;#E6E6E6&quot;&gt;%c4Description%&lt;/font&gt;&lt;/div&gt;" id="nHVEsoi8LOaqeYR5R_P5-91">
          <mxCell style="shape=cylinder3;size=15;whiteSpace=wrap;html=1;boundedLbl=1;rounded=0;labelBackgroundColor=none;fillColor=#23A2D9;fontSize=12;fontColor=#ffffff;align=center;strokeColor=#0E7DAD;metaEdit=1;points=[[0.5,0,0],[1,0.25,0],[1,0.5,0],[1,0.75,0],[0.5,1,0],[0,0.75,0],[0,0.5,0],[0,0.25,0]];resizable=0;" parent="1" vertex="1">
            <mxGeometry x="1440" y="120" width="240" height="120" as="geometry" />
          </mxCell>
        </object>
        <mxCell id="nHVEsoi8LOaqeYR5R_P5-92" style="edgeStyle=orthogonalEdgeStyle;rounded=0;orthogonalLoop=1;jettySize=auto;html=1;entryX=0;entryY=0.5;entryDx=0;entryDy=0;entryPerimeter=0;dashed=1;" parent="1" source="nHVEsoi8LOaqeYR5R_P5-90" target="nHVEsoi8LOaqeYR5R_P5-91" edge="1">
          <mxGeometry relative="1" as="geometry" />
        </mxCell>
        <mxCell id="nHVEsoi8LOaqeYR5R_P5-93" value="Reads/writes data" style="edgeLabel;html=1;align=center;verticalAlign=middle;resizable=0;points=[];" parent="nHVEsoi8LOaqeYR5R_P5-92" vertex="1" connectable="0">
          <mxGeometry x="-0.1637" y="-4" relative="1" as="geometry">
            <mxPoint x="26" y="-14" as="offset" />
          </mxGeometry>
        </mxCell>
        <mxCell id="nHVEsoi8LOaqeYR5R_P5-94" value="[SSL]" style="edgeLabel;html=1;align=center;verticalAlign=middle;resizable=0;points=[];" parent="nHVEsoi8LOaqeYR5R_P5-92" vertex="1" connectable="0">
          <mxGeometry x="0.0613" y="-3" relative="1" as="geometry">
            <mxPoint x="-10" y="7" as="offset" />
          </mxGeometry>
        </mxCell>
        <mxCell id="nHVEsoi8LOaqeYR5R_P5-95" style="edgeStyle=orthogonalEdgeStyle;rounded=0;orthogonalLoop=1;jettySize=auto;html=1;entryX=0;entryY=0.5;entryDx=0;entryDy=0;entryPerimeter=0;dashed=1;" parent="1" source="nHVEsoi8LOaqeYR5R_P5-3" target="nHVEsoi8LOaqeYR5R_P5-90" edge="1">
          <mxGeometry relative="1" as="geometry">
            <Array as="points">
              <mxPoint x="640" y="180" />
            </Array>
          </mxGeometry>
        </mxCell>
        <mxCell id="nHVEsoi8LOaqeYR5R_P5-96" value="GET, PUT, POST, PATCH" style="edgeLabel;html=1;align=center;verticalAlign=middle;resizable=0;points=[];" parent="nHVEsoi8LOaqeYR5R_P5-95" vertex="1" connectable="0">
          <mxGeometry x="0.2618" y="-2" relative="1" as="geometry">
            <mxPoint x="-14" y="-12" as="offset" />
          </mxGeometry>
        </mxCell>
        <mxCell id="nHVEsoi8LOaqeYR5R_P5-97" value="[HTTP]" style="edgeLabel;html=1;align=center;verticalAlign=middle;resizable=0;points=[];" parent="nHVEsoi8LOaqeYR5R_P5-95" vertex="1" connectable="0">
          <mxGeometry x="0.149" y="-2" relative="1" as="geometry">
            <mxPoint x="5" y="8" as="offset" />
          </mxGeometry>
        </mxCell>
        <object placeholders="1" c4Name="InvoiceServer" c4Type="Container" c4Technology="e.g. SpringBoot, ElasticSearch, etc." c4Description="Description of container role/responsibility." label="&lt;font style=&quot;font-size: 16px&quot;&gt;&lt;b&gt;%c4Name%&lt;/b&gt;&lt;/font&gt;&lt;div&gt;[%c4Type%: %c4Technology%]&lt;/div&gt;&lt;br&gt;&lt;div&gt;&lt;font style=&quot;font-size: 11px&quot;&gt;&lt;font color=&quot;#E6E6E6&quot;&gt;%c4Description%&lt;/font&gt;&lt;/div&gt;" id="nHVEsoi8LOaqeYR5R_P5-98">
          <mxCell style="rounded=1;whiteSpace=wrap;html=1;fontSize=11;labelBackgroundColor=none;fillColor=#23A2D9;fontColor=#ffffff;align=center;arcSize=10;strokeColor=#0E7DAD;metaEdit=1;resizable=0;points=[[0.25,0,0],[0.5,0,0],[0.75,0,0],[1,0.25,0],[1,0.5,0],[1,0.75,0],[0.75,1,0],[0.5,1,0],[0.25,1,0],[0,0.75,0],[0,0.5,0],[0,0.25,0]];" parent="1" vertex="1">
            <mxGeometry x="1000" y="1360" width="240" height="120" as="geometry" />
          </mxCell>
        </object>
        <mxCell id="nHVEsoi8LOaqeYR5R_P5-99" style="edgeStyle=orthogonalEdgeStyle;rounded=0;orthogonalLoop=1;jettySize=auto;html=1;entryX=1;entryY=0.25;entryDx=0;entryDy=0;entryPerimeter=0;dashed=1;" parent="1" source="nHVEsoi8LOaqeYR5R_P5-6" target="nHVEsoi8LOaqeYR5R_P5-22" edge="1">
          <mxGeometry relative="1" as="geometry">
            <Array as="points">
              <mxPoint x="1340" y="1310" />
              <mxPoint x="1340" y="1310" />
            </Array>
          </mxGeometry>
        </mxCell>
        <mxCell id="nHVEsoi8LOaqeYR5R_P5-103" value="Queues daypassed event" style="edgeLabel;html=1;align=center;verticalAlign=middle;resizable=0;points=[];" parent="nHVEsoi8LOaqeYR5R_P5-99" vertex="1" connectable="0">
          <mxGeometry x="-0.4451" y="1" relative="1" as="geometry">
            <mxPoint y="24" as="offset" />
          </mxGeometry>
        </mxCell>
        <mxCell id="nHVEsoi8LOaqeYR5R_P5-100" style="edgeStyle=orthogonalEdgeStyle;rounded=0;orthogonalLoop=1;jettySize=auto;html=1;entryX=0.5;entryY=0;entryDx=0;entryDy=0;entryPerimeter=0;dashed=1;" parent="1" source="nHVEsoi8LOaqeYR5R_P5-22" target="nHVEsoi8LOaqeYR5R_P5-98" edge="1">
          <mxGeometry relative="1" as="geometry">
            <Array as="points">
              <mxPoint x="1220" y="1280" />
              <mxPoint x="1120" y="1280" />
            </Array>
          </mxGeometry>
        </mxCell>
        <mxCell id="nHVEsoi8LOaqeYR5R_P5-104" value="Notify day past event" style="edgeLabel;html=1;align=center;verticalAlign=middle;resizable=0;points=[];" parent="nHVEsoi8LOaqeYR5R_P5-100" vertex="1" connectable="0">
          <mxGeometry x="-0.8706" y="-2" relative="1" as="geometry">
            <mxPoint x="2" y="3" as="offset" />
          </mxGeometry>
        </mxCell>
        <mxCell id="nHVEsoi8LOaqeYR5R_P5-101" style="edgeStyle=orthogonalEdgeStyle;rounded=0;orthogonalLoop=1;jettySize=auto;html=1;entryX=1;entryY=0.5;entryDx=0;entryDy=0;entryPerimeter=0;dashed=1;" parent="1" source="nHVEsoi8LOaqeYR5R_P5-98" target="nHVEsoi8LOaqeYR5R_P5-10" edge="1">
          <mxGeometry relative="1" as="geometry" />
        </mxCell>
        <mxCell id="nHVEsoi8LOaqeYR5R_P5-102" value="Sends emails via" style="edgeLabel;html=1;align=center;verticalAlign=middle;resizable=0;points=[];" parent="nHVEsoi8LOaqeYR5R_P5-101" vertex="1" connectable="0">
          <mxGeometry x="0.5157" relative="1" as="geometry">
            <mxPoint x="31" y="-10" as="offset" />
          </mxGeometry>
        </mxCell>
        <mxCell id="nHVEsoi8LOaqeYR5R_P5-105" style="edgeStyle=orthogonalEdgeStyle;rounded=0;orthogonalLoop=1;jettySize=auto;html=1;entryX=0.5;entryY=0;entryDx=0;entryDy=0;entryPerimeter=0;dashed=1;" parent="1" source="nHVEsoi8LOaqeYR5R_P5-22" target="nHVEsoi8LOaqeYR5R_P5-7" edge="1">
          <mxGeometry relative="1" as="geometry" />
        </mxCell>
        <mxCell id="nHVEsoi8LOaqeYR5R_P5-107" value="Notify notifcation event" style="edgeLabel;html=1;align=center;verticalAlign=middle;resizable=0;points=[];" parent="nHVEsoi8LOaqeYR5R_P5-105" vertex="1" connectable="0">
          <mxGeometry x="0.563" y="-1" relative="1" as="geometry">
            <mxPoint x="1" y="79" as="offset" />
          </mxGeometry>
        </mxCell>
        <mxCell id="nHVEsoi8LOaqeYR5R_P5-106" style="edgeStyle=orthogonalEdgeStyle;rounded=0;orthogonalLoop=1;jettySize=auto;html=1;entryX=0.5;entryY=0;entryDx=0;entryDy=0;entryPerimeter=0;dashed=1;" parent="1" source="nHVEsoi8LOaqeYR5R_P5-22" target="nHVEsoi8LOaqeYR5R_P5-8" edge="1">
          <mxGeometry relative="1" as="geometry" />
        </mxCell>
        <mxCell id="nHVEsoi8LOaqeYR5R_P5-108" value="Notify audit log event" style="edgeLabel;html=1;align=center;verticalAlign=middle;resizable=0;points=[];" parent="nHVEsoi8LOaqeYR5R_P5-106" vertex="1" connectable="0">
          <mxGeometry x="0.8986" y="-1" relative="1" as="geometry">
            <mxPoint x="1" y="9" as="offset" />
          </mxGeometry>
        </mxCell>
      </root>
    </mxGraphModel>
  </diagram>
</mxfile>
